<?xml version="1.0" encoding="utf-8"?>
<!-- Generator: Adobe Illustrator 24.0.3, SVG Export Plug-In . SVG Version: 6.00 Build 0)  -->
<svg version="1.1" id="Layer_1" xmlns="http://www.w3.org/2000/svg" xmlns:xlink="http://www.w3.org/1999/xlink" x="0px" y="0px"
	 viewBox="0 0 226 60.1" style="enable-background:new 0 0 226 60.1;" xml:space="preserve">
<style type="text/css">
	.st0{fill:url(#SVGID_1_);stroke:#00B3BA;stroke-width:1.5;stroke-miterlimit:10;}
	.st1{fill:#00B3BA;}
	.st2{fill:#FFFFFF;}
</style>
<linearGradient id="SVGID_1_" gradientUnits="userSpaceOnUse" x1="1.2949" y1="30.0257" x2="224.619" y2="30.0257">
	<stop  offset="0.61" style="stop-color:#FFFFFF"/>
	<stop  offset="0.61" style="stop-color:#E4F3F4"/>
	<stop  offset="0.61" style="stop-color:#C5E5E7"/>
	<stop  offset="0.61" style="stop-color:#A4D7DB"/>
	<stop  offset="0.61" style="stop-color:#86CCD1"/>
	<stop  offset="0.61" style="stop-color:#67C3C8"/>
	<stop  offset="0.61" style="stop-color:#4ABBC2"/>
	<stop  offset="0.61" style="stop-color:#2CB6BD"/>
	<stop  offset="0.61" style="stop-color:#0AB4BA"/>
	<stop  offset="0.61" style="stop-color:#00B3BA"/>
</linearGradient>
<path class="st0" d="M213.3,58.8H12.6c-6.3,0-11.3-5.1-11.3-11.3V12.6c0-6.3,5.1-11.3,11.3-11.3h200.6c6.3,0,11.3,5.1,11.3,11.3
	v34.9C224.6,53.8,219.5,58.8,213.3,58.8z"/>
<g>
	<path class="st1" d="M25.1,17.1c5.5,0,8.3,2.2,8.3,6.6h-6.6c0-1.1-0.6-1.7-1.7-1.7h-3.3c-1.1,0-1.7,0.6-1.7,1.7v11.6
		c0,1.1,0.5,1.7,1.7,1.7h3.3c1.1,0,1.7-0.5,1.7-1.7v-3.3h-3.3v-5h9.9v8.3c0,4.4-2.8,6.6-8.3,6.6h-3.3c-5.5,0-8.3-2.2-8.3-6.6V23.7
		c0-4.4,2.8-6.6,8.3-6.6H25.1z"/>
	<path class="st1" d="M41.3,38.5l-1.1,3.3h-6.6l8.3-24.8h6.6l8.3,24.8h-6.6L49,38.5H41.3z M45.2,27L43,33.6h4.4L45.2,27z"/>
	<path class="st1" d="M64.4,30v11.8h-6.6V17.1h6.6l5.8,10.3L76,17.1h6.6v24.8H76V30l-5,8.9l-0.8,1.5l-0.8-1.5L64.4,30z"/>
	<path class="st1" d="M91.9,36.9h13.2v5H85.3V17.1h19.8v5H91.9v5h8.3v5h-8.3V36.9z"/>
	<path class="st1" d="M119.4,17.1c5.5,0,8.3,2.2,8.3,6.6h-6.6c0-1.1-0.6-1.7-1.7-1.7h-3.3c-1.1,0-1.7,0.6-1.7,1.7v1.7
		c0,1.1,0.5,1.7,1.7,1.7h3.3c5.5,0,8.3,2.2,8.3,6.6v1.7c0,4.4-2.8,6.6-8.3,6.6h-3.3c-5.5,0-8.3-2.2-8.3-6.6h6.6
		c0,1.1,0.5,1.7,1.7,1.7h3.3c1.1,0,1.7-0.5,1.7-1.7v-1.7c0-1.1-0.6-1.7-1.7-1.7h-3.3c-5.5,0-8.3-2.2-8.3-6.6v-1.7
		c0-4.4,2.8-6.6,8.3-6.6H119.4z"/>
	<path class="st2" d="M156.3,31.9v9.9h-6.6V17.1h6.6V27h6.6v-9.9h6.6v24.8h-6.6v-9.9H156.3z"/>
	<path class="st2" d="M171.6,33.6V17.1h6.6v16.5c0,2.2,0.5,3.3,1.7,3.3h3.3c1.1,0,1.7-1.1,1.7-3.3V17.1h6.6v16.5
		c0,5.5-2.8,8.3-8.3,8.3h-3.3C174.3,41.8,171.6,39.1,171.6,33.6z"/>
	<path class="st2" d="M193.4,17.1H205c5.5,0,8.3,2.2,8.3,6.6v1.7c0,1.7-0.4,3.1-1.2,4.1c0.8,1,1.2,2.4,1.2,4.1v1.7
		c0,4.4-2.8,6.6-8.3,6.6h-11.6V17.1z M200,27h5c1.1,0,1.7-0.5,1.7-1.7v-1.7c0-1.1-0.6-1.7-1.7-1.7h-5V27z M200,31.9v5h5
		c1.1,0,1.7-0.5,1.7-1.7v-1.7c0-1.1-0.6-1.7-1.7-1.7H200z"/>
</g>
<g>
</g>
<g>
</g>
<g>
</g>
<g>
</g>
<g>
</g>
<g>
</g>
</svg>
